<svg width="114" height="118" viewBox="0 0 114 118" fill="none" xmlns="http://www.w3.org/2000/svg">
<path d="M5.59375 26.4626V92.9152H108.447V26.4626H5.59375Z" fill="white"/>
<path d="M111.565 31.3435H2.45951C2.45951 31.3435 -1.53418 1.62006 57.2383 1.61987C116.011 1.61969 111.565 31.3435 111.565 31.3435Z" fill="#FF7715" stroke="white" stroke-width="3"/>
<path d="M111.565 86.5921H2.45951C2.45951 86.5921 -1.53418 116.315 57.2383 116.316C116.011 116.316 111.565 86.5921 111.565 86.5921Z" fill="#FF7715" stroke="white" stroke-width="3"/>
<path d="M11.332 80.9398V40.0623L16.5098 37.6096H16.7824V56.9583H35.913C35.7314 53.4519 35.1318 50.6904 34.1144 48.6738C32.5338 45.5308 30.1266 43.1962 26.8927 41.6701L28.9366 37.6096H29.2091C33.1515 38.954 36.3491 41.9336 38.8017 46.5482C40.5458 49.8365 41.4179 54.0787 41.4179 59.2747C41.4179 64.4707 40.5458 68.7129 38.8017 72.0012C36.3491 76.6159 33.1515 79.5954 29.2091 80.9398H28.9366L26.8927 76.8793C30.1266 75.3532 32.5338 73.0186 34.1144 69.8756C35.1318 67.859 35.7314 65.0975 35.913 61.5911H16.7824V78.4871L11.6045 80.9398H11.332Z" fill="#FF1515"/>
<path d="M42.6366 46.5482C45.6888 40.9525 49.9219 38.1547 55.3359 38.1547C59.678 38.1547 63.039 39.4718 65.419 42.1061C67.6355 44.577 68.7437 47.6382 68.7437 51.29C68.7437 56.6676 65.6097 60.8008 59.3419 63.6895C57.9974 64.289 57.3252 65.5517 57.3252 67.4775L52.0657 70.0119H51.7931C51.7931 65.1066 53.3828 61.8273 56.5622 60.174C61.086 57.8304 63.3479 54.8599 63.3479 51.2627C63.3479 48.7556 62.7392 46.8025 61.522 45.4036C59.9959 43.6595 57.9339 42.7874 55.3359 42.7874C52.0112 42.7874 49.3405 44.7496 47.3239 48.6738H47.0514L42.6366 46.5482ZM52.6652 79.4137C52.0293 78.7597 51.7114 77.9784 51.7114 77.07C51.7114 76.1435 52.0293 75.3532 52.6652 74.6992C53.3011 74.0451 54.0732 73.7181 54.9816 73.7181C55.89 73.7181 56.6621 74.0451 57.298 74.6992C57.9339 75.3532 58.2518 76.1435 58.2518 77.07C58.2518 77.9784 57.9339 78.7597 57.298 79.4137C56.6621 80.0677 55.89 80.3948 54.9816 80.3948C54.0732 80.3948 53.3011 80.0677 52.6652 79.4137Z" fill="#FF1515"/>
<path d="M78.4104 79.8497C73.8685 79.8497 71.5975 77.9058 71.5975 74.0179V59.2747C71.5975 53.9879 72.4695 49.7457 74.2136 46.5482C77.2658 40.9525 81.4989 38.1547 86.9129 38.1547C89.9651 38.1547 92.5177 38.9904 94.5706 40.6618C96.987 42.6421 98.1951 45.34 98.1951 48.7556C98.1951 51.8804 96.8144 54.4784 94.0529 56.5495C94.9431 56.9311 95.8242 57.5033 96.6963 58.2664C99.3488 60.6827 100.675 63.6804 100.675 67.2594C100.675 70.8567 99.5123 73.8089 97.1868 76.1162C94.6797 78.6052 91.255 79.8497 86.9129 79.8497H78.4104ZM86.9129 59.2475H77.0478V74.0179C77.0478 74.8172 77.502 75.2169 78.4104 75.2169H86.9129C89.5654 75.2169 91.7274 74.3267 93.3988 72.5463C94.6161 71.2564 95.2247 69.5486 95.2247 67.423C95.2247 65.1883 94.6342 63.3897 93.4533 62.0271C91.8546 60.174 89.6744 59.2475 86.9129 59.2475ZM77.2931 54.6147H86.9129C88.7297 54.6147 90.1922 54.0242 91.3004 52.8433C92.2815 51.7714 92.772 50.3634 92.772 48.6193C92.772 46.8934 92.2452 45.4944 91.1914 44.4225C90.1559 43.3325 88.7297 42.7874 86.9129 42.7874C83.5519 42.7874 80.8812 44.7496 78.9009 48.6738C78.1197 50.2181 77.5838 52.1984 77.2931 54.6147Z" fill="#FF1515"/>
<path d="M11.332 80.9398V40.0623L16.5098 37.6096H16.7824V56.9583H35.913C35.7314 53.4519 35.1318 50.6904 34.1144 48.6738C32.5338 45.5308 30.1266 43.1962 26.8927 41.6701L28.9366 37.6096H29.2091C33.1515 38.954 36.3491 41.9336 38.8017 46.5482C40.5458 49.8365 41.4179 54.0787 41.4179 59.2747C41.4179 64.4707 40.5458 68.7129 38.8017 72.0012C36.3491 76.6159 33.1515 79.5954 29.2091 80.9398H28.9366L26.8927 76.8793C30.1266 75.3532 32.5338 73.0186 34.1144 69.8756C35.1318 67.859 35.7314 65.0975 35.913 61.5911H16.7824V78.4871L11.6045 80.9398H11.332Z" stroke="#FF1515" stroke-width="2"/>
<path d="M42.6366 46.5482C45.6888 40.9525 49.9219 38.1547 55.3359 38.1547C59.678 38.1547 63.039 39.4718 65.419 42.1061C67.6355 44.577 68.7437 47.6382 68.7437 51.29C68.7437 56.6676 65.6097 60.8008 59.3419 63.6895C57.9974 64.289 57.3252 65.5517 57.3252 67.4775L52.0657 70.0119H51.7931C51.7931 65.1066 53.3828 61.8273 56.5622 60.174C61.086 57.8304 63.3479 54.8599 63.3479 51.2627C63.3479 48.7556 62.7392 46.8025 61.522 45.4036C59.9959 43.6595 57.9339 42.7874 55.3359 42.7874C52.0112 42.7874 49.3405 44.7496 47.3239 48.6738H47.0514L42.6366 46.5482ZM52.6652 79.4137C52.0293 78.7597 51.7114 77.9784 51.7114 77.07C51.7114 76.1435 52.0293 75.3532 52.6652 74.6992C53.3011 74.0451 54.0732 73.7181 54.9816 73.7181C55.89 73.7181 56.6621 74.0451 57.298 74.6992C57.9339 75.3532 58.2518 76.1435 58.2518 77.07C58.2518 77.9784 57.9339 78.7597 57.298 79.4137C56.6621 80.0677 55.89 80.3948 54.9816 80.3948C54.0732 80.3948 53.3011 80.0677 52.6652 79.4137Z" stroke="#FF1515" stroke-width="2"/>
<path d="M78.4104 79.8497C73.8685 79.8497 71.5975 77.9058 71.5975 74.0179V59.2747C71.5975 53.9879 72.4695 49.7457 74.2136 46.5482C77.2658 40.9525 81.4989 38.1547 86.9129 38.1547C89.9651 38.1547 92.5177 38.9904 94.5706 40.6618C96.987 42.6421 98.1951 45.34 98.1951 48.7556C98.1951 51.8804 96.8144 54.4784 94.0529 56.5495C94.9431 56.9311 95.8242 57.5033 96.6963 58.2664C99.3488 60.6827 100.675 63.6804 100.675 67.2594C100.675 70.8567 99.5123 73.8089 97.1868 76.1162C94.6797 78.6052 91.255 79.8497 86.9129 79.8497H78.4104ZM86.9129 59.2475H77.0478V74.0179C77.0478 74.8172 77.502 75.2169 78.4104 75.2169H86.9129C89.5654 75.2169 91.7274 74.3267 93.3988 72.5463C94.6161 71.2564 95.2247 69.5486 95.2247 67.423C95.2247 65.1883 94.6342 63.3897 93.4533 62.0271C91.8546 60.174 89.6744 59.2475 86.9129 59.2475ZM77.2931 54.6147H86.9129C88.7297 54.6147 90.1922 54.0242 91.3004 52.8433C92.2815 51.7714 92.772 50.3634 92.772 48.6193C92.772 46.8934 92.2452 45.4944 91.1914 44.4225C90.1559 43.3325 88.7297 42.7874 86.9129 42.7874C83.5519 42.7874 80.8812 44.7496 78.9009 48.6738C78.1197 50.2181 77.5838 52.1984 77.2931 54.6147Z" stroke="#FF1515" stroke-width="2"/>
</svg>
