<svg width="42" height="44" viewBox="0 0 42 44" fill="none" xmlns="http://www.w3.org/2000/svg">
<path d="M2.68555 10.7617V33.9371H38.5558V10.7617H2.68555Z" fill="white"/>
<path d="M39.6447 12.4638H1.59416C1.59416 12.4638 0.201351 2.09772 20.6983 2.09766C41.1952 2.09759 39.6447 12.4638 39.6447 12.4638Z" fill="#FF7715" stroke="white" stroke-width="3"/>
<path d="M39.6447 31.7318H1.59416C1.59416 31.7318 0.201353 42.0978 20.6983 42.0979C41.1952 42.098 39.6447 31.7318 39.6447 31.7318Z" fill="#FF7715" stroke="white" stroke-width="3"/>
<path d="M4.68945 29.7606V15.5045L6.49522 14.6492H6.59026V21.397H13.2621C13.1987 20.1742 12.9897 19.2111 12.6348 18.5078C12.0836 17.4117 11.2441 16.5975 10.1163 16.0653L10.8291 14.6492H10.9241C12.299 15.118 13.4142 16.1571 14.2695 17.7665C14.8778 18.9133 15.1819 20.3928 15.1819 22.2049C15.1819 24.017 14.8778 25.4965 14.2695 26.6433C13.4142 28.2526 12.299 29.2917 10.9241 29.7606H10.8291L10.1163 28.3445C11.2441 27.8123 12.0836 26.9981 12.6348 25.902C12.9897 25.1987 13.1987 24.2356 13.2621 23.0127H6.59026V28.9052L4.78449 29.7606H4.68945Z" fill="#FF1515"/>
<path d="M15.6069 17.7665C16.6714 15.815 18.1477 14.8393 20.0358 14.8393C21.5501 14.8393 22.7223 15.2986 23.5523 16.2173C24.3253 17.079 24.7118 18.1467 24.7118 19.4202C24.7118 21.2957 23.6189 22.7371 21.4329 23.7445C20.9641 23.9536 20.7296 24.394 20.7296 25.0656L18.8953 25.9495H18.8003C18.8003 24.2388 19.3547 23.0951 20.4635 22.5185C22.0412 21.7012 22.83 20.6652 22.83 19.4107C22.83 18.5363 22.6178 17.8552 22.1932 17.3673C21.661 16.7591 20.9419 16.4549 20.0358 16.4549C18.8763 16.4549 17.9449 17.1392 17.2416 18.5078H17.1466L15.6069 17.7665ZM19.1044 29.2284C18.8827 29.0003 18.7718 28.7278 18.7718 28.411C18.7718 28.0879 18.8827 27.8123 19.1044 27.5842C19.3262 27.3561 19.5955 27.242 19.9123 27.242C20.2291 27.242 20.4984 27.3561 20.7201 27.5842C20.9419 27.8123 21.0528 28.0879 21.0528 28.411C21.0528 28.7278 20.9419 29.0003 20.7201 29.2284C20.4984 29.4565 20.2291 29.5705 19.9123 29.5705C19.5955 29.5705 19.3262 29.4565 19.1044 29.2284Z" fill="#FF1515"/>
<path d="M28.0831 29.3804C26.4991 29.3804 25.7071 28.7025 25.7071 27.3466V22.2049C25.7071 20.3611 26.0112 18.8816 26.6195 17.7665C27.6839 15.815 29.1602 14.8393 31.0484 14.8393C32.1128 14.8393 33.003 15.1307 33.719 15.7136C34.5617 16.4043 34.983 17.3452 34.983 18.5363C34.983 19.6261 34.5015 20.5322 33.5384 21.2545C33.8489 21.3875 34.1562 21.5871 34.4603 21.8532C35.3854 22.6959 35.8479 23.7414 35.8479 24.9896C35.8479 26.2441 35.4424 27.2737 34.6314 28.0784C33.757 28.9464 32.5627 29.3804 31.0484 29.3804H28.0831ZM31.0484 22.1954H27.6079V27.3466C27.6079 27.6254 27.7663 27.7648 28.0831 27.7648H31.0484C31.9734 27.7648 32.7274 27.4543 33.3103 26.8334C33.7348 26.3835 33.9471 25.7879 33.9471 25.0466C33.9471 24.2673 33.7412 23.64 33.3293 23.1648C32.7718 22.5185 32.0114 22.1954 31.0484 22.1954ZM27.6934 20.5797H31.0484C31.682 20.5797 32.192 20.3738 32.5785 19.9619C32.9207 19.5881 33.0917 19.0971 33.0917 18.4888C33.0917 17.8869 32.908 17.399 32.5405 17.0252C32.1793 16.645 31.682 16.4549 31.0484 16.4549C29.8762 16.4549 28.9448 17.1392 28.2542 18.5078C27.9817 19.0464 27.7948 19.737 27.6934 20.5797Z" fill="#FF1515"/>
<path d="M4.68945 29.7606V15.5045L6.49522 14.6492H6.59026V21.397H13.2621C13.1987 20.1742 12.9897 19.2111 12.6348 18.5078C12.0836 17.4117 11.2441 16.5975 10.1163 16.0653L10.8291 14.6492H10.9241C12.299 15.118 13.4142 16.1571 14.2695 17.7665C14.8778 18.9133 15.1819 20.3928 15.1819 22.2049C15.1819 24.017 14.8778 25.4965 14.2695 26.6433C13.4142 28.2526 12.299 29.2917 10.9241 29.7606H10.8291L10.1163 28.3445C11.2441 27.8123 12.0836 26.9981 12.6348 25.902C12.9897 25.1987 13.1987 24.2356 13.2621 23.0127H6.59026V28.9052L4.78449 29.7606H4.68945Z" stroke="#FF1515" stroke-width="2"/>
<path d="M15.6069 17.7665C16.6714 15.815 18.1477 14.8393 20.0358 14.8393C21.5501 14.8393 22.7223 15.2986 23.5523 16.2173C24.3253 17.079 24.7118 18.1467 24.7118 19.4202C24.7118 21.2957 23.6189 22.7371 21.4329 23.7445C20.9641 23.9536 20.7296 24.394 20.7296 25.0656L18.8953 25.9495H18.8003C18.8003 24.2388 19.3547 23.0951 20.4635 22.5185C22.0412 21.7012 22.83 20.6652 22.83 19.4107C22.83 18.5363 22.6178 17.8552 22.1932 17.3673C21.661 16.7591 20.9419 16.4549 20.0358 16.4549C18.8763 16.4549 17.9449 17.1392 17.2416 18.5078H17.1466L15.6069 17.7665ZM19.1044 29.2284C18.8827 29.0003 18.7718 28.7278 18.7718 28.411C18.7718 28.0879 18.8827 27.8123 19.1044 27.5842C19.3262 27.3561 19.5955 27.242 19.9123 27.242C20.2291 27.242 20.4984 27.3561 20.7201 27.5842C20.9419 27.8123 21.0528 28.0879 21.0528 28.411C21.0528 28.7278 20.9419 29.0003 20.7201 29.2284C20.4984 29.4565 20.2291 29.5705 19.9123 29.5705C19.5955 29.5705 19.3262 29.4565 19.1044 29.2284Z" stroke="#FF1515" stroke-width="2"/>
<path d="M28.0831 29.3804C26.4991 29.3804 25.7071 28.7025 25.7071 27.3466V22.2049C25.7071 20.3611 26.0112 18.8816 26.6195 17.7665C27.6839 15.815 29.1602 14.8393 31.0484 14.8393C32.1128 14.8393 33.003 15.1307 33.719 15.7136C34.5617 16.4043 34.983 17.3452 34.983 18.5363C34.983 19.6261 34.5015 20.5322 33.5384 21.2545C33.8489 21.3875 34.1562 21.5871 34.4603 21.8532C35.3854 22.6959 35.8479 23.7414 35.8479 24.9896C35.8479 26.2441 35.4424 27.2737 34.6314 28.0784C33.757 28.9464 32.5627 29.3804 31.0484 29.3804H28.0831ZM31.0484 22.1954H27.6079V27.3466C27.6079 27.6254 27.7663 27.7648 28.0831 27.7648H31.0484C31.9734 27.7648 32.7274 27.4543 33.3103 26.8334C33.7348 26.3835 33.9471 25.7879 33.9471 25.0466C33.9471 24.2673 33.7412 23.64 33.3293 23.1648C32.7718 22.5185 32.0114 22.1954 31.0484 22.1954ZM27.6934 20.5797H31.0484C31.682 20.5797 32.192 20.3738 32.5785 19.9619C32.9207 19.5881 33.0917 19.0971 33.0917 18.4888C33.0917 17.8869 32.908 17.399 32.5405 17.0252C32.1793 16.645 31.682 16.4549 31.0484 16.4549C29.8762 16.4549 28.9448 17.1392 28.2542 18.5078C27.9817 19.0464 27.7948 19.737 27.6934 20.5797Z" stroke="#FF1515" stroke-width="2"/>
</svg>
