<svg width="575" height="458" viewBox="0 0 575 458" fill="none" xmlns="http://www.w3.org/2000/svg">
<path d="M21.6875 321.165V86.7904L51.375 72.7279H52.9375V183.665H162.625C161.583 163.561 158.146 147.728 152.312 136.165C143.25 118.145 129.448 104.759 110.906 96.0092L122.625 72.7279H124.188C146.792 80.4363 165.125 97.5196 179.188 123.978C189.188 142.832 194.188 167.155 194.188 196.947C194.188 226.738 189.188 251.061 179.188 269.915C165.125 296.374 146.792 313.457 124.188 321.165H122.625L110.906 297.884C129.448 289.134 143.25 275.749 152.312 257.728C158.146 246.165 161.583 230.332 162.625 210.228H52.9375V307.103L23.25 321.165H21.6875Z" fill="#351818"/>
<path d="M210.55 321.165V196.947C210.55 166.634 215.55 142.311 225.55 123.978C243.05 91.8946 267.321 75.8529 298.362 75.8529C329.508 75.8529 353.779 91.8946 371.175 123.978C381.175 142.415 386.175 166.738 386.175 196.947C386.175 226.738 381.175 251.061 371.175 269.915C357.112 296.374 338.779 313.457 316.175 321.165H314.612L302.894 297.884C321.435 289.134 335.237 275.749 344.3 257.728C350.133 246.165 353.571 230.332 354.612 210.228H241.8V307.103L212.113 321.165H210.55ZM242.113 183.665H354.612C353.571 163.665 350.133 147.832 344.3 136.165C333.05 113.665 317.737 102.415 298.362 102.415C279.092 102.415 263.779 113.665 252.425 136.165C246.592 147.832 243.154 163.665 242.113 183.665Z" fill="#351818"/>
<path d="M393.163 123.978C410.663 91.8946 434.933 75.8529 465.975 75.8529C490.871 75.8529 510.142 83.405 523.787 98.5092C536.496 112.676 542.85 130.228 542.85 151.165C542.85 181.999 524.881 205.697 488.944 222.259C481.235 225.697 477.381 232.936 477.381 243.978L447.225 258.509H445.663C445.663 230.384 454.777 211.582 473.006 202.103C498.944 188.665 511.913 171.634 511.913 151.009C511.913 136.634 508.423 125.436 501.444 117.415C492.694 107.415 480.871 102.415 465.975 102.415C446.913 102.415 431.6 113.665 420.038 136.165H418.475L393.163 123.978ZM450.663 312.415C447.017 308.665 445.194 304.186 445.194 298.978C445.194 293.665 447.017 289.134 450.663 285.384C454.308 281.634 458.735 279.759 463.944 279.759C469.152 279.759 473.579 281.634 477.225 285.384C480.871 289.134 482.694 293.665 482.694 298.978C482.694 304.186 480.871 308.665 477.225 312.415C473.579 316.165 469.152 318.04 463.944 318.04C458.735 318.04 454.308 316.165 450.663 312.415Z" fill="#351818"/>
<path d="M227.904 58.9448C226.628 60.1297 225.351 60.9045 224.075 61.269C222.891 61.5425 221.341 61.6792 219.427 61.6792C217.513 61.6792 215.508 60.5854 213.411 58.3979C211.406 56.2104 210.404 52.4279 210.404 47.0503C210.404 41.5815 211.543 36.1584 213.822 30.7808C216.191 25.312 219.336 20.6636 223.255 16.8354C231.641 8.81462 241.712 4.8042 253.47 4.8042C260.215 4.8042 266.048 5.94352 270.97 8.22217C275.892 10.4097 282.91 14.9214 292.025 21.7573L310.755 35.5659C317.318 40.2144 321.647 42.812 323.743 43.3589C325.84 43.9058 327.663 44.1792 329.212 44.1792C338.144 44.1792 344.115 37.3433 347.122 23.6714C348.49 17.2912 349.948 13.3263 351.497 11.7769C353.138 10.2274 355.325 9.45264 358.06 9.45264C360.885 9.45264 363.346 10.5464 365.443 12.7339C367.63 14.9214 368.724 18.7495 368.724 24.2183C368.724 29.5959 367.539 35.019 365.169 40.4878C362.891 45.8654 359.792 50.4683 355.872 54.2964C347.487 62.3172 337.461 66.3276 325.794 66.3276C314.219 66.3276 301.094 60.312 286.419 48.2808L272.611 37.2065C265.866 31.8289 261.263 28.7756 258.802 28.0464C256.341 27.3172 254.154 26.9526 252.24 26.9526C242.031 26.9526 235.332 33.743 232.142 47.3237C230.592 53.8862 229.18 57.7599 227.904 58.9448Z" fill="#351818"/>
<path d="M19.3438 437.559H39.9395C47.2142 437.559 52.9954 435.27 57.2832 430.693C60.4147 427.369 61.9805 422.985 61.9805 417.541C61.9805 411.904 60.3184 407.159 56.9941 403.305C53.3809 398.872 47.696 396.656 39.9395 396.656H19.3438V437.559ZM19.3438 383.648H39.9395C44.7572 383.648 48.6354 382.083 51.5742 378.951C54.1758 376.157 55.4766 372.519 55.4766 368.039C55.4766 364.378 53.9108 361.077 50.7793 358.139C47.985 355.682 44.3717 354.453 39.9395 354.453H19.3438V383.648ZM4.89062 450.566V345.059L12.5508 341.445H39.9395C48.0814 341.445 54.8503 343.661 60.2461 348.094C66.6536 353.297 69.8574 359.969 69.8574 368.111C69.8574 376.398 66.196 383.287 58.873 388.779C61.2337 389.791 63.5703 391.309 65.8828 393.332C72.9167 399.74 76.4336 407.689 76.4336 417.18C76.4336 426.719 73.3503 434.547 67.1836 440.666C60.5833 447.266 51.502 450.566 39.9395 450.566H4.89062Z" fill="#351818"/>
<path d="M160.603 338.555V415.879C160.603 426.285 157.351 434.837 150.847 441.533C144.006 448.519 135.093 452.012 124.109 452.012C113.269 452.012 104.356 448.519 97.3704 441.533C90.8665 435.077 87.6145 426.526 87.6145 415.879V345.059L101.345 338.555H102.068V415.879C102.068 422.335 103.802 427.562 107.271 431.56C111.559 436.523 117.171 439.004 124.109 439.004C131.046 439.004 136.659 436.523 140.947 431.56C144.415 427.562 146.15 422.335 146.15 415.879V345.059L159.88 338.555H160.603Z" fill="#351818"/>
<path d="M173.229 453.457V345.059L180.889 341.445H208.278C219.262 341.445 228.175 344.938 235.016 351.924C241.52 358.572 244.772 367.124 244.772 377.578C244.772 388.081 241.52 396.632 235.016 403.232C231.162 407.135 226.657 409.953 221.503 411.687L246.506 447.459L233.788 453.457H233.065L205.243 413.711H187.682V446.953L173.952 453.457H173.229ZM187.682 400.703H208.278C214.589 400.703 220.202 398.222 225.116 393.26C228.585 389.743 230.319 384.516 230.319 377.578C230.319 371.122 228.585 365.895 225.116 361.896C220.828 356.934 215.215 354.453 208.278 354.453H187.682V400.703Z" fill="#351818"/>
<path d="M328.508 389.43V415.879C328.508 426.333 325.256 434.885 318.752 441.533C311.911 448.519 302.998 452.012 292.014 452.012C281.029 452.012 272.116 448.519 265.275 441.533C258.771 434.885 255.519 426.333 255.519 415.879V376.133C255.519 365.678 258.771 357.127 265.275 350.478C272.116 343.493 281.029 340 292.014 340C303.383 340 312.296 343.493 318.752 350.478C325.256 357.464 328.508 365.534 328.508 374.687L314.777 381.191H314.055V376.133C314.055 369.677 312.32 364.45 308.851 360.451C304.564 355.489 298.951 353.008 292.014 353.008C285.076 353.008 279.463 355.489 275.176 360.451C271.707 364.45 269.973 369.677 269.973 376.133V415.879C269.973 422.335 271.707 427.562 275.176 431.56C279.463 436.523 285.076 439.004 292.014 439.004C298.951 439.004 304.564 436.523 308.851 431.56C312.32 427.562 314.055 422.816 314.055 417.324V402.582H288.906V401.859L294.76 389.43H328.508Z" fill="#351818"/>
<path d="M414.122 338.555V415.879C414.122 426.285 410.87 434.837 404.366 441.533C397.525 448.519 388.612 452.012 377.628 452.012C366.788 452.012 357.875 448.519 350.89 441.533C344.386 435.077 341.134 426.526 341.134 415.879V345.059L354.864 338.555H355.587V415.879C355.587 422.335 357.321 427.562 360.79 431.56C365.078 436.523 370.691 439.004 377.628 439.004C384.566 439.004 390.178 436.523 394.466 431.56C397.935 427.562 399.669 422.335 399.669 415.879V345.059L413.4 338.555H414.122Z" fill="#351818"/>
<path d="M426.748 450.566V345.059L434.409 341.445H480.225V342.168L474.371 354.598H441.202V389.43H480.225V390.152L474.371 402.582H441.202V437.414H492.293V438.137L486.44 450.566H426.748Z" fill="#351818"/>
<path d="M494.152 453.457V345.059L501.812 341.445H529.201C540.185 341.445 549.098 344.938 555.939 351.924C562.443 358.572 565.695 367.124 565.695 377.578C565.695 388.081 562.443 396.632 555.939 403.232C552.085 407.135 547.58 409.953 542.425 411.687L567.429 447.459L554.711 453.457H553.988L526.166 413.711H508.605V446.953L494.875 453.457H494.152ZM508.605 400.703H529.201C535.512 400.703 541.125 398.222 546.039 393.26C549.508 389.743 551.242 384.516 551.242 377.578C551.242 371.122 549.508 365.895 546.039 361.896C541.751 356.934 536.138 354.453 529.201 354.453H508.605V400.703Z" fill="#351818"/>
<path d="M21.6875 321.165V86.7904L51.375 72.7279H52.9375V183.665H162.625C161.583 163.561 158.146 147.728 152.312 136.165C143.25 118.145 129.448 104.759 110.906 96.0092L122.625 72.7279H124.188C146.792 80.4363 165.125 97.5196 179.188 123.978C189.188 142.832 194.188 167.155 194.188 196.947C194.188 226.738 189.188 251.061 179.188 269.915C165.125 296.374 146.792 313.457 124.188 321.165H122.625L110.906 297.884C129.448 289.134 143.25 275.749 152.312 257.728C158.146 246.165 161.583 230.332 162.625 210.228H52.9375V307.103L23.25 321.165H21.6875Z" stroke="#351818" stroke-width="9"/>
<path d="M210.55 321.165V196.947C210.55 166.634 215.55 142.311 225.55 123.978C243.05 91.8946 267.321 75.8529 298.362 75.8529C329.508 75.8529 353.779 91.8946 371.175 123.978C381.175 142.415 386.175 166.738 386.175 196.947C386.175 226.738 381.175 251.061 371.175 269.915C357.112 296.374 338.779 313.457 316.175 321.165H314.612L302.894 297.884C321.435 289.134 335.237 275.749 344.3 257.728C350.133 246.165 353.571 230.332 354.612 210.228H241.8V307.103L212.113 321.165H210.55ZM242.113 183.665H354.612C353.571 163.665 350.133 147.832 344.3 136.165C333.05 113.665 317.737 102.415 298.362 102.415C279.092 102.415 263.779 113.665 252.425 136.165C246.592 147.832 243.154 163.665 242.113 183.665Z" stroke="#351818" stroke-width="9"/>
<path d="M393.163 123.978C410.663 91.8946 434.933 75.8529 465.975 75.8529C490.871 75.8529 510.142 83.405 523.787 98.5092C536.496 112.676 542.85 130.228 542.85 151.165C542.85 181.999 524.881 205.697 488.944 222.259C481.235 225.697 477.381 232.936 477.381 243.978L447.225 258.509H445.663C445.663 230.384 454.777 211.582 473.006 202.103C498.944 188.665 511.913 171.634 511.913 151.009C511.913 136.634 508.423 125.436 501.444 117.415C492.694 107.415 480.871 102.415 465.975 102.415C446.913 102.415 431.6 113.665 420.038 136.165H418.475L393.163 123.978ZM450.663 312.415C447.017 308.665 445.194 304.186 445.194 298.978C445.194 293.665 447.017 289.134 450.663 285.384C454.308 281.634 458.735 279.759 463.944 279.759C469.152 279.759 473.579 281.634 477.225 285.384C480.871 289.134 482.694 293.665 482.694 298.978C482.694 304.186 480.871 308.665 477.225 312.415C473.579 316.165 469.152 318.04 463.944 318.04C458.735 318.04 454.308 316.165 450.663 312.415Z" stroke="#351818" stroke-width="9"/>
<path d="M227.904 58.9448C226.628 60.1297 225.351 60.9045 224.075 61.269C222.891 61.5425 221.341 61.6792 219.427 61.6792C217.513 61.6792 215.508 60.5854 213.411 58.3979C211.406 56.2104 210.404 52.4279 210.404 47.0503C210.404 41.5815 211.543 36.1584 213.822 30.7808C216.191 25.312 219.336 20.6636 223.255 16.8354C231.641 8.81462 241.712 4.8042 253.47 4.8042C260.215 4.8042 266.048 5.94352 270.97 8.22217C275.892 10.4097 282.91 14.9214 292.025 21.7573L310.755 35.5659C317.318 40.2144 321.647 42.812 323.743 43.3589C325.84 43.9058 327.663 44.1792 329.212 44.1792C338.144 44.1792 344.115 37.3433 347.122 23.6714C348.49 17.2912 349.948 13.3263 351.497 11.7769C353.138 10.2274 355.325 9.45264 358.06 9.45264C360.885 9.45264 363.346 10.5464 365.443 12.7339C367.63 14.9214 368.724 18.7495 368.724 24.2183C368.724 29.5959 367.539 35.019 365.169 40.4878C362.891 45.8654 359.792 50.4683 355.872 54.2964C347.487 62.3172 337.461 66.3276 325.794 66.3276C314.219 66.3276 301.094 60.312 286.419 48.2808L272.611 37.2065C265.866 31.8289 261.263 28.7756 258.802 28.0464C256.341 27.3172 254.154 26.9526 252.24 26.9526C242.031 26.9526 235.332 33.743 232.142 47.3237C230.592 53.8862 229.18 57.7599 227.904 58.9448Z" stroke="#351818" stroke-width="9"/>
<path d="M19.3438 437.559H39.9395C47.2142 437.559 52.9954 435.27 57.2832 430.693C60.4147 427.369 61.9805 422.985 61.9805 417.541C61.9805 411.904 60.3184 407.159 56.9941 403.305C53.3809 398.872 47.696 396.656 39.9395 396.656H19.3438V437.559ZM19.3438 383.648H39.9395C44.7572 383.648 48.6354 382.083 51.5742 378.951C54.1758 376.157 55.4766 372.519 55.4766 368.039C55.4766 364.378 53.9108 361.077 50.7793 358.139C47.985 355.682 44.3717 354.453 39.9395 354.453H19.3438V383.648ZM4.89062 450.566V345.059L12.5508 341.445H39.9395C48.0814 341.445 54.8503 343.661 60.2461 348.094C66.6536 353.297 69.8574 359.969 69.8574 368.111C69.8574 376.398 66.196 383.287 58.873 388.779C61.2337 389.791 63.5703 391.309 65.8828 393.332C72.9167 399.74 76.4336 407.689 76.4336 417.18C76.4336 426.719 73.3503 434.547 67.1836 440.666C60.5833 447.266 51.502 450.566 39.9395 450.566H4.89062Z" stroke="#351818" stroke-width="9"/>
<path d="M160.603 338.555V415.879C160.603 426.285 157.351 434.837 150.847 441.533C144.006 448.519 135.093 452.012 124.109 452.012C113.269 452.012 104.356 448.519 97.3704 441.533C90.8665 435.077 87.6145 426.526 87.6145 415.879V345.059L101.345 338.555H102.068V415.879C102.068 422.335 103.802 427.562 107.271 431.56C111.559 436.523 117.171 439.004 124.109 439.004C131.046 439.004 136.659 436.523 140.947 431.56C144.415 427.562 146.15 422.335 146.15 415.879V345.059L159.88 338.555H160.603Z" stroke="#351818" stroke-width="9"/>
<path d="M173.229 453.457V345.059L180.889 341.445H208.278C219.262 341.445 228.175 344.938 235.016 351.924C241.52 358.572 244.772 367.124 244.772 377.578C244.772 388.081 241.52 396.632 235.016 403.232C231.162 407.135 226.657 409.953 221.503 411.687L246.506 447.459L233.788 453.457H233.065L205.243 413.711H187.682V446.953L173.952 453.457H173.229ZM187.682 400.703H208.278C214.589 400.703 220.202 398.222 225.116 393.26C228.585 389.743 230.319 384.516 230.319 377.578C230.319 371.122 228.585 365.895 225.116 361.896C220.828 356.934 215.215 354.453 208.278 354.453H187.682V400.703Z" stroke="#351818" stroke-width="9"/>
<path d="M328.508 389.43V415.879C328.508 426.333 325.256 434.885 318.752 441.533C311.911 448.519 302.998 452.012 292.014 452.012C281.029 452.012 272.116 448.519 265.275 441.533C258.771 434.885 255.519 426.333 255.519 415.879V376.133C255.519 365.678 258.771 357.127 265.275 350.478C272.116 343.493 281.029 340 292.014 340C303.383 340 312.296 343.493 318.752 350.478C325.256 357.464 328.508 365.534 328.508 374.687L314.777 381.191H314.055V376.133C314.055 369.677 312.32 364.45 308.851 360.451C304.564 355.489 298.951 353.008 292.014 353.008C285.076 353.008 279.463 355.489 275.176 360.451C271.707 364.45 269.973 369.677 269.973 376.133V415.879C269.973 422.335 271.707 427.562 275.176 431.56C279.463 436.523 285.076 439.004 292.014 439.004C298.951 439.004 304.564 436.523 308.851 431.56C312.32 427.562 314.055 422.816 314.055 417.324V402.582H288.906V401.859L294.76 389.43H328.508Z" stroke="#351818" stroke-width="9"/>
<path d="M414.122 338.555V415.879C414.122 426.285 410.87 434.837 404.366 441.533C397.525 448.519 388.612 452.012 377.628 452.012C366.788 452.012 357.875 448.519 350.89 441.533C344.386 435.077 341.134 426.526 341.134 415.879V345.059L354.864 338.555H355.587V415.879C355.587 422.335 357.321 427.562 360.79 431.56C365.078 436.523 370.691 439.004 377.628 439.004C384.566 439.004 390.178 436.523 394.466 431.56C397.935 427.562 399.669 422.335 399.669 415.879V345.059L413.4 338.555H414.122Z" stroke="#351818" stroke-width="9"/>
<path d="M426.748 450.566V345.059L434.409 341.445H480.225V342.168L474.371 354.598H441.202V389.43H480.225V390.152L474.371 402.582H441.202V437.414H492.293V438.137L486.44 450.566H426.748Z" stroke="#351818" stroke-width="9"/>
<path d="M494.152 453.457V345.059L501.812 341.445H529.201C540.185 341.445 549.098 344.938 555.939 351.924C562.443 358.572 565.695 367.124 565.695 377.578C565.695 388.081 562.443 396.632 555.939 403.232C552.085 407.135 547.58 409.953 542.425 411.687L567.429 447.459L554.711 453.457H553.988L526.166 413.711H508.605V446.953L494.875 453.457H494.152ZM508.605 400.703H529.201C535.512 400.703 541.125 398.222 546.039 393.26C549.508 389.743 551.242 384.516 551.242 377.578C551.242 371.122 549.508 365.895 546.039 361.896C541.751 356.934 536.138 354.453 529.201 354.453H508.605V400.703Z" stroke="#351818" stroke-width="9"/>
</svg>
